<svg width="37" height="33" viewBox="0 0 37 33" fill="none" xmlns="http://www.w3.org/2000/svg">
<path d="M15.3623 26.5923C13.5285 26.5923 12.0619 27.9816 12.0619 29.7178C12.0619 31.4545 13.5289 32.8434 15.3623 32.8434C17.1961 32.8434 18.6628 31.454 18.6628 29.7178C18.6628 27.9816 17.1957 26.5923 15.3623 26.5923ZM15.3623 31.6862C14.2009 31.6862 13.2842 30.8181 13.2842 29.7182C13.2842 28.6183 14.2009 27.7503 15.3623 27.7503C16.5237 27.7503 17.4404 28.6184 17.4404 29.7182C17.4404 30.8181 16.5233 31.6862 15.3623 31.6862ZM26.3035 26.5923C24.4697 26.5923 23.003 27.9816 23.003 29.7178C23.003 31.4545 24.4701 32.8434 26.3035 32.8434C28.1373 32.8434 29.6039 31.454 29.6039 29.7178C29.6039 27.9816 28.1372 26.5923 26.3035 26.5923ZM26.3035 31.6862C25.142 31.6862 24.2254 30.8181 24.2254 29.7182C24.2254 28.6183 25.1421 27.7503 26.3035 27.7503C27.4649 27.7503 28.3816 28.6184 28.3816 29.7182C28.3816 30.8181 27.4649 31.6862 26.3035 31.6862ZM36.8778 5.34893C36.7554 5.23304 36.5721 5.11756 36.3887 5.11756H6.74372L5.94898 1.29711C5.88801 1.0076 5.64327 0.833984 5.33757 0.833984H0.937096C0.570419 0.833984 0.325684 1.06535 0.325684 1.41299C0.325684 1.76023 0.569994 1.992 0.937096 1.992H4.84901L9.61666 24.2774C9.67763 24.5669 9.92237 24.7405 10.2281 24.7405H31.3158C31.6215 24.7405 31.8658 24.5669 31.9272 24.3351L37.0001 5.87009C37.0001 5.69647 37.0001 5.52244 36.8777 5.34882L36.8778 5.34893ZM30.8267 23.6403H10.717L6.98849 6.33295H35.5944L30.8267 23.6403Z" fill="#D3D3D3"/>
</svg>
