<svg width="31" height="30" viewBox="0 0 31 30" fill="none" xmlns="http://www.w3.org/2000/svg">
<path d="M12.6729 0.612482C5.67912 0.612482 0 5.99108 0 12.6137C0 19.2363 5.67962 24.6149 12.6729 24.6149C16.0029 24.6149 19.0347 23.399 21.2975 21.4062L30.172 29.8238C30.3554 29.9974 30.6635 29.9974 30.8466 29.8238C31.03 29.6501 31.03 29.3723 30.8466 29.1986L21.9579 20.781C24.0589 18.6384 25.3462 15.7643 25.3462 12.6135C25.3462 5.99036 19.6666 0.612244 12.6733 0.612244L12.6729 0.612482ZM12.6729 1.50156C19.1591 1.50156 24.4077 6.47146 24.4077 12.6144C24.4077 18.7568 19.1596 23.7273 12.6729 23.7273C6.18672 23.7273 0.938079 18.7571 0.938079 12.6144C0.938079 6.4717 6.18613 1.50156 12.6729 1.50156Z" fill="#D3D3D3"/>
</svg>
