<svg width="49" height="38" viewBox="0 0 49 38" fill="none" xmlns="http://www.w3.org/2000/svg">
<path d="M46.8438 0H2.15625C1.20557 0 0.4375 0.768066 0.4375 1.71875V36.0938C0.4375 37.0444 1.20557 37.8125 2.15625 37.8125H46.8438C47.7944 37.8125 48.5625 37.0444 48.5625 36.0938V1.71875C48.5625 0.768066 47.7944 0 46.8438 0ZM44.6953 5.95117V33.9453H4.30469V5.95117L2.82227 4.79639L4.93311 2.08398L7.23193 3.87256H41.7734L44.0723 2.08398L46.1831 4.79639L44.6953 5.95117ZM41.7734 3.86719L24.5 17.2949L7.22656 3.86719L4.92773 2.07861L2.81689 4.79102L4.29932 5.9458L22.647 20.2114C23.1746 20.6214 23.8238 20.8439 24.4919 20.8439C25.1601 20.8439 25.8093 20.6214 26.3369 20.2114L44.6953 5.95117L46.1777 4.79639L44.0669 2.08398L41.7734 3.86719Z" fill="#D3D3D3"/>
</svg>
