<svg width="11" height="17" viewBox="0 0 11 17" fill="none" xmlns="http://www.w3.org/2000/svg">
<path d="M9.12743 1.71797L8.76888 15.5501C8.75642 16.0302 8.48036 16.4237 8.15635 16.4237H1.94231C1.61776 16.4237 1.34223 16.0306 1.32978 15.5501L0.971229 1.71797C0.967165 1.55878 0.87695 1.43498 0.769807 1.44101C0.662663 1.44704 0.579086 1.5811 0.58315 1.74008L0.941705 15.5722C0.962159 16.3622 1.40915 17 1.9423 17H8.15634C8.6888 17 9.13651 16.3621 9.15693 15.5722L9.51548 1.74008C9.51955 1.5811 9.43597 1.44704 9.32883 1.44101C9.22168 1.43498 9.13147 1.55879 9.12741 1.71797H9.12743Z" fill="#D3D3D3" fill-opacity="0.4"/>
<path d="M4.85449 4.61015V14.4068C4.85449 14.566 4.94145 14.695 5.04874 14.695C5.15602 14.695 5.24298 14.566 5.24298 14.4068V4.61015C5.24298 4.45096 5.15602 4.32193 5.04874 4.32193C4.94145 4.32193 4.85449 4.45096 4.85449 4.61015Z" fill="#D3D3D3" fill-opacity="0.4"/>
<path d="M2.71859 4.6189L2.91283 14.4155C2.91595 14.5747 3.00549 14.6997 3.11263 14.6951C3.21991 14.6905 3.30416 14.5576 3.30105 14.3987L3.1068 4.60202C3.10369 4.44304 3.01429 4.31782 2.90701 4.32264C2.79987 4.32727 2.71548 4.45992 2.71859 4.6191V4.6189Z" fill="#D3D3D3" fill-opacity="0.4"/>
<path d="M6.99096 4.60139L6.79671 14.398C6.7936 14.557 6.87785 14.6899 6.98513 14.6945C7.09228 14.6991 7.18181 14.5741 7.18493 14.4149L7.37917 4.61828C7.38229 4.45909 7.2979 4.32644 7.19075 4.32182C7.08347 4.317 6.99407 4.44221 6.99096 4.60119V4.60139Z" fill="#D3D3D3" fill-opacity="0.4"/>
<path d="M0.194244 2.01691H9.90368C10.011 2.01691 10.0979 1.88788 10.0979 1.72889C10.0979 1.56971 10.011 1.44067 9.90368 1.44067H0.194244C0.0869616 1.44067 0 1.56971 0 1.72889C0 1.88787 0.0869616 2.01691 0.194244 2.01691Z" fill="#D3D3D3" fill-opacity="0.4"/>
<path d="M3.28732 1.8358L3.49511 1.06483C3.56528 0.80495 3.79284 0.576227 3.98086 0.576227H6.11701C6.30597 0.576227 6.53219 0.803546 6.60276 1.06483L6.81055 1.8358L7.17111 1.62175L6.96332 0.850774C6.83383 0.370615 6.46485 0 6.11701 0H3.98086C3.6341 0 3.26361 0.37203 3.13455 0.850774L2.92676 1.62175L3.28732 1.8358Z" fill="#D3D3D3" fill-opacity="0.4"/>
</svg>
