<svg width="19" height="22" viewBox="0 0 19 22" fill="none" xmlns="http://www.w3.org/2000/svg">
<path d="M17.9817 0.407853L17.236 19.7944C17.2101 20.4674 16.636 21.0189 15.9622 21.0189H3.03926C2.36431 21.0189 1.79132 20.4679 1.76543 19.7944L1.01976 0.407853C1.01131 0.184745 0.823696 0.0112229 0.600876 0.0196748C0.378057 0.0281259 0.204246 0.216021 0.212698 0.438841L0.958363 19.8254C1.0009 20.9327 1.93047 21.8266 3.03923 21.8266H15.9622C17.0695 21.8266 18.0006 20.9325 18.043 19.8254L18.7887 0.438841C18.7971 0.216021 18.6233 0.0281266 18.4005 0.0196748C18.1777 0.0112236 17.9901 0.184752 17.9816 0.407853H17.9817Z" fill="#D3D3D3" fill-opacity="0.4"/>
</svg>
