<svg width="29" height="18" viewBox="0 0 29 18" fill="none" xmlns="http://www.w3.org/2000/svg">
<path d="M28.0947 9.28832L26.8403 0.804551C26.8073 0.63945 26.6752 0.540436 26.5432 0.540436L13.0418 0.540666C12.8767 0.540666 12.7116 0.672609 12.7116 0.870869V3.37963H6.76968C6.60458 3.37963 6.47264 3.47864 6.47264 3.64374L5.87832 7.20891L1.05887 9.02432C0.926926 9.05725 0.86084 9.18942 0.86084 9.32137V14.9334C0.86084 15.0985 0.992783 15.2636 1.19104 15.2636H4.65723C4.82233 16.4849 5.87857 17.4423 7.13304 17.4423C8.42046 17.4423 9.47692 16.4852 9.60885 15.2636H20.9315C21.0966 16.4849 22.1529 17.4423 23.4074 17.4423C24.6948 17.4423 25.7512 16.4852 25.8832 15.2636H27.7978C27.9629 15.2636 28.128 15.1316 28.128 14.9334L28.1275 9.3216C28.0946 9.3216 28.0946 9.28844 28.0946 9.28844L28.0947 9.28832ZM13.3719 1.16767H26.2461L27.4016 9.02423L13.3721 9.024L13.3719 1.16767ZM7.06688 3.97347H12.7447V7.10943H6.5387L7.06688 3.97347ZM1.4551 9.51939L6.20871 7.73669H12.7118V14.6359H9.57587C9.41077 13.4146 8.35453 12.4572 7.10006 12.4572C5.81264 12.4572 4.75618 13.4144 4.62426 14.6359H1.48829V9.51945L1.4551 9.51939ZM7.10006 16.8148C6.07679 16.8148 5.21833 15.9566 5.21833 14.933C5.21833 13.9098 6.07655 13.0513 7.10006 13.0513C8.12334 13.0513 8.9818 13.9095 8.9818 14.933C8.98157 15.9566 8.1234 16.8148 7.10006 16.8148ZM23.3744 16.8148C22.3511 16.8148 21.4926 15.9566 21.4926 14.933C21.4926 13.9098 22.3509 13.0513 23.3744 13.0513C24.3976 13.0513 25.2561 13.9095 25.2561 14.933C25.2561 15.9566 24.4308 16.8148 23.3744 16.8148ZM25.8833 14.6362C25.7182 13.4149 24.662 12.4575 23.4075 12.4575C22.1201 12.4575 21.0636 13.4147 20.9317 14.6362H13.3722V9.6515H27.4678V14.6361L25.8833 14.6362Z" fill="#D3D3D3"/>
</svg>
