<svg width="103" height="167" viewBox="0 0 103 167" fill="none" xmlns="http://www.w3.org/2000/svg">
<path d="M91.6701 77.1331H91.4109V69.1823C96.6368 68.6492 100.742 64.2755 100.742 58.9142V10.3756C100.742 4.6545 96.0891 -0.000244141 90.3665 -0.000244141H10.3774C4.65633 -0.000244141 0.00157854 4.65301 0.00157854 10.3756V58.9142C0.00157854 64.2755 4.10599 68.6521 9.33308 69.1823V72.3137H7.39888C7.0435 72.3137 6.7114 72.4928 6.51916 72.7943C6.32691 73.0929 6.30215 73.4687 6.44779 73.792L9.33162 80.0941V141C4.10565 141.533 0.00012207 145.907 0.00012207 151.268V155.934C0.00012207 161.655 4.65338 166.309 10.376 166.309H90.365C96.0862 166.309 100.741 161.656 100.741 155.934V151.268C100.741 145.907 96.6365 141.532 91.4094 141V127.276H91.6687C97.3898 127.276 102.045 122.623 102.045 116.9V87.5083C102.042 81.7872 97.3898 77.1325 91.6687 77.1325L91.6701 77.1331ZM10.3798 2.08813H90.3688C94.5825 2.08813 98.0299 5.25742 98.5497 9.33125H2.19969C2.71964 5.25742 6.16726 2.08813 10.3805 2.08813H10.3798ZM2.09231 58.9116V11.417H98.6549V58.9116C98.6549 63.4806 94.9379 67.1991 90.3674 67.1991H10.382C5.81156 67.1961 2.09454 63.4792 2.09454 58.909L2.09231 58.9116ZM11.4238 69.2874H89.3248V77.1335H88.2267V73.3568C88.2267 72.78 87.7591 72.3125 87.1824 72.3125H11.4253L11.4238 69.2874ZM91.4128 86.1898C92.8489 86.2422 94.0097 87.4088 94.0097 88.861V115.552C94.0097 117.002 92.8489 118.171 91.4128 118.224V86.1898ZM89.3257 118.238H88.4023V86.1708H89.3257V118.238ZM77.8503 140.895H23.0328C18.4638 140.895 14.7442 137.178 14.7442 132.608V87.119C14.7442 86.9689 14.7107 86.8204 14.6495 86.6849L11.4235 79.6357V79.2206H86.1366V132.606C86.1395 137.175 82.4226 140.894 77.8521 140.894L77.8503 140.895ZM86.1378 74.3997V77.1335L10.2763 77.132L9.02514 74.3982L86.1378 74.3997ZM12.6551 87.3479V132.609C12.6551 136.006 14.3213 139.003 16.8542 140.897L11.4247 140.895V84.657L12.6551 87.3479ZM98.6546 151.267V155.932C98.6546 160.501 94.9376 164.219 90.3671 164.219H10.3818C5.81279 164.219 2.09428 160.503 2.09428 155.932V151.267C2.09428 146.698 5.81122 142.979 10.3818 142.979H90.3708C94.9383 142.982 98.6553 146.699 98.6553 151.267H98.6546ZM89.3257 140.894H84.0285C86.5613 139.001 88.2276 136.006 88.2276 132.606V127.276H89.3258L89.3257 140.894ZM99.9581 116.901C99.9581 121.47 96.2412 125.189 91.6706 125.189H88.4008V120.326H91.3196C93.9543 120.326 96.0966 118.183 96.0966 115.549V88.8587C96.0966 86.2254 93.9542 84.0817 91.3196 84.0817H88.4008V79.2215H91.6706C96.2396 79.2215 99.9581 82.9399 99.9581 87.509V116.901Z" fill="#D3D3D3"/>
<path d="M50.3687 146.492C46.4493 146.492 43.2614 149.68 43.2614 153.6C43.2614 157.519 46.4496 160.708 50.3687 160.708C54.2897 160.708 57.4776 157.52 57.4776 153.6C57.4776 149.682 54.2894 146.492 50.3687 146.492ZM50.3687 158.62C47.6 158.62 45.3497 156.367 45.3497 153.598C45.3497 150.829 47.6 148.579 50.3687 148.579C53.1375 148.579 55.3908 150.832 55.3908 153.598C55.3908 156.37 53.1376 158.62 50.3687 158.62Z" fill="#D3D3D3"/>
<path d="M85.82 62.4277H88.5407C90.1457 62.4277 91.4536 61.1227 91.4536 59.5177V18.7719C91.4536 17.1668 90.1472 15.8618 88.5407 15.8618H85.82C84.2149 15.8618 82.9099 17.1668 82.9099 18.7719V59.5177C82.9099 61.1213 84.2149 62.4292 85.82 62.4292V62.4277ZM84.9971 18.7699C84.9971 18.3169 85.367 17.947 85.82 17.947H88.5407C88.9966 17.947 89.365 18.3169 89.365 18.7699V59.5157C89.365 59.9687 88.9951 60.3386 88.5407 60.3386H85.82C85.367 60.3386 84.9971 59.9687 84.9971 59.5157V18.7699Z" fill="#D3D3D3"/>
</svg>
