<svg width="87" height="182" viewBox="0 0 87 182" fill="none" xmlns="http://www.w3.org/2000/svg">
<path d="M85.8104 165.482H71.9617V161.276H76.0824C76.6749 161.276 77.1602 160.793 77.1602 160.198V155.607C77.1602 155.015 76.677 154.53 76.0824 154.53H69.4038V65.5703C69.4038 64.9757 68.925 64.4926 68.3282 64.4926H65.5825L65.5847 6.74403H76.0846C76.677 6.74403 77.1623 6.26091 77.1623 5.66629V1.07556C77.1623 0.480952 76.6792 0 76.0846 0H10.7138C10.1214 0 9.63605 0.478753 9.63605 1.07556V5.66629C9.63605 6.2609 10.1192 6.74403 10.7138 6.74403H21.0648V64.4926H18.2404C17.6501 64.4926 17.1648 64.9713 17.1648 65.5703V154.535H10.7117C10.1192 154.535 9.63391 155.018 9.63391 155.613V160.204C9.63391 160.796 10.117 161.281 10.7117 161.281H15.0117V165.487H1.07119C0.478762 165.487 0 165.964 0 166.559V172.979C0 173.572 0.476557 174.057 1.07119 174.057H14.8634L14.8656 180.412C14.8656 181.002 15.3443 181.483 15.9411 181.483H70.8881C71.4806 181.483 71.9637 181 71.9637 180.412V174.053H85.8124C86.4048 174.053 86.8879 173.569 86.8879 172.975V166.554C86.8879 165.96 86.4048 165.483 85.8124 165.483L85.8104 165.482ZM28.6606 88.9072C29.2552 88.9072 29.7384 88.4285 29.7384 87.8317V66.6378H56.8475V87.8317C56.8475 88.4241 57.3263 88.9072 57.9231 88.9072C58.5177 88.9072 58.9987 88.4285 58.9987 87.8317V66.6378H63.4429V94.7179H23.2104V66.6378H27.5847V87.8317C27.5847 88.4263 28.0634 88.9072 28.6602 88.9072H28.6606ZM56.8477 64.491H29.7385V6.74241H56.8477V64.491ZM63.3926 96.8708C63.2767 97.9048 62.4241 98.7268 61.3595 98.7268C61.2568 98.7268 61.1584 98.7683 61.0579 98.7923C60.9507 98.7574 60.8414 98.7268 60.7234 98.7268L26.0088 98.7246C25.8732 98.7246 25.7464 98.7552 25.6306 98.8033C25.5213 98.7661 25.412 98.7246 25.2917 98.7246C24.2227 98.7246 23.3767 97.9026 23.2609 96.8686L63.3926 96.8708ZM26.1551 100.878H60.4875L62.1402 108.754H24.4349L26.1551 100.878ZM23.9625 110.908H62.5884L63.0212 112.958L23.5167 112.956L23.9625 110.908ZM23.2105 115.107H63.4386V154.316L23.2105 154.314V115.107ZM67.2575 66.64V154.318H65.5873V114.033C65.5873 113.745 65.4715 113.484 65.2857 113.294L62.6405 100.681C64.3478 100.136 65.583 98.534 65.583 96.6474C65.583 96.6234 65.5698 96.5971 65.5698 96.5752C65.5698 96.5534 65.583 96.525 65.583 96.5031V66.6455H67.2575L67.2575 66.64ZM63.4385 64.4911H58.9942V6.74258H63.4385V64.4911ZM11.786 2.15358H75.0078V4.59543H11.786V2.15358ZM23.2104 6.74431H27.5847V64.4929H23.2104V6.74431ZM19.3148 66.6419H21.0637V96.0707C21.0637 96.1713 21.0943 96.2653 21.1205 96.3615C21.0964 96.4533 21.0637 96.5495 21.0637 96.65C21.0637 98.5366 22.2944 100.132 23.9974 100.683L21.1883 113.555C21.1161 113.701 21.0659 113.861 21.0659 114.038V154.32H19.317V66.6427L19.3148 66.6419ZM11.786 156.687H75.0078V159.122H11.786V156.687ZM17.1638 161.28H69.8107V165.486L17.1638 165.484V161.28ZM17.0173 174.053H21.3829V179.337H17.0173V174.053ZM63.5217 174.053V179.337H59.7289V174.053H63.5217ZM57.5779 179.337H53.7851V174.053H57.5779V179.337ZM51.6318 179.337H47.8433V174.053H51.6318V179.337ZM45.6879 179.337H41.5125V174.053H45.6879V179.337ZM39.3635 179.337H35.5707V174.053H39.3635V179.337ZM33.4151 179.337H29.4758V174.053H33.4151V179.337ZM27.3246 179.337H23.5318V174.053H27.3246V179.337ZM69.8087 179.337H65.6726V174.053H69.8087V179.337ZM84.733 171.9H2.14786V167.635H84.733V171.9Z" fill="#D3D3D3"/>
</svg>
