<svg width="127" height="159" viewBox="0 0 127 159" fill="none" xmlns="http://www.w3.org/2000/svg">
<path d="M0.117828 33.3541C-0.0428827 33.6868 -0.0388661 34.0737 0.127872 34.4025C0.296615 34.7312 0.607989 34.9617 0.971585 35.0279C7.72347 37.2871 13.1717 42.3406 15.9256 48.8954L22.5808 61.1094L22.611 61.1595L24.8066 82.3078L25.0176 82.8691V82.8671C25.9115 83.9055 27.0144 84.7434 28.2539 85.3307V97.3585L25.3089 100.688C25.0296 101.005 24.9412 101.448 25.0799 101.847L19.8667 146.97L19.9289 147.503C20.0836 147.934 23.7498 157.238 48.722 158.779L48.8607 158.789C51.0825 158.923 53.469 158.998 56.0384 158.998H56.0364C60.9621 159.032 65.8857 158.707 70.7636 158.023H70.7877L70.9966 157.991C89.1109 155.261 92.0134 147.888 92.1502 147.505L92.2125 146.972L87.0055 101.835C87.132 101.45 87.0517 101.027 86.7925 100.716L83.8455 97.1882V84.7059C84.6993 84.2408 85.4747 83.6454 86.1457 82.9438L86.4068 82.3685L93.1649 39.4427H109.911L100.388 76.0344L93.5984 77.3895C93.2509 77.4577 92.9536 77.6802 92.7868 77.9909C92.6221 78.3036 92.604 78.6724 92.7406 78.9992C93.281 80.2941 95.989 86.7727 96.21 87.214C96.4511 87.6991 96.9774 87.9778 97.5158 87.9036C98.2209 87.8655 98.922 87.7713 99.611 87.623C100.72 87.4245 102.245 87.1178 104.143 86.7109C107.363 86.0213 110.6 85.2676 110.632 85.2596V85.2616C111.029 85.1674 111.351 84.8747 111.481 84.4879L126.941 38.208H126.939C127.072 37.8111 126.984 37.3721 126.706 37.0574L114.466 23.1714V23.1734C114.243 22.9169 113.92 22.7705 113.58 22.7705H77.4022L60.1658 18.138L63.2012 4.88786V4.87583L63.2133 4.83775L63.2273 4.74153L63.2293 4.69943V4.56513L63.2173 4.45086V4.43282L63.1872 4.29852L63.1771 4.27246L63.1389 4.17022L63.1329 4.15218C62.4138 2.81111 61.3189 1.70861 59.985 0.974931C58.6491 0.241249 57.1304 -0.0894888 55.6097 0.0207405C52.4176 -0.0774857 49.3859 1.4139 47.5217 4.00182L47.5117 4.02187L47.4534 4.12611L47.4413 4.15016L47.3911 4.28447L47.3851 4.31053L47.359 4.42479L47.353 4.45686L47.3409 4.58716V4.59718L47.3469 4.73951L47.3509 4.77559L47.361 4.84375L49.8721 18.1883L20.0484 27.2812L19.968 27.3092C3.8188 26.1225 0.261063 33.0603 0.116038 33.3549L0.117828 33.3541ZM82.4581 99.2043L84.1355 101.213C75.0894 105.238 65.1696 106.91 55.3002 106.068C45.8787 107.058 36.3647 105.461 27.7866 101.449L29.5524 99.4509C37.5858 103.304 46.5337 104.855 55.3967 103.931C64.6757 104.735 74.0051 103.105 82.4582 99.2043L82.4581 99.2043ZM47.6865 156.341C41.2041 156.052 34.8215 154.631 28.8333 152.137L28.8735 151.935C30.2837 137.865 32.847 112.392 33.5019 106.289C38.1625 107.397 42.9177 108.049 47.7046 108.231C47.7468 113.854 47.7126 140.693 47.6865 156.341L47.6865 156.341ZM22.2542 146.907L27.2222 103.905V103.903C28.4857 104.611 29.8177 105.184 31.1998 105.619L31.0853 106.671L30.5308 112.007C30.0788 116.419 29.4822 122.301 28.8876 128.182C27.8771 138.175 26.8746 148.164 26.5975 150.943C24.8296 149.988 23.335 148.597 22.2543 146.905L22.2542 146.907ZM50.0491 156.489C50.0551 153.135 50.0712 142.758 50.0812 132.376C50.0873 125.048 50.0893 119.208 50.0853 115.019L50.0732 109.288L50.0672 108.335C51.7044 108.394 53.4501 108.422 55.3004 108.424C59.4729 108.424 63.121 108.257 66.3012 107.979C66.7954 113.329 68.3885 138.276 69.4693 155.82H69.4713C65.0176 156.385 60.5317 156.658 56.0421 156.638C54.1718 156.638 52.1509 156.596 50.0497 156.49L50.0491 156.489ZM84.3208 151.604H84.3187C80.3814 153.538 76.1608 154.843 71.8137 155.467C71.5967 151.941 70.97 141.817 70.3231 131.783C69.8551 124.518 69.4693 118.721 69.172 114.55L68.7441 108.825L68.6517 107.744H68.6537C74.2624 107.375 79.7487 105.948 84.8251 103.537L89.8272 146.904C88.4752 148.96 86.5668 150.592 84.3209 151.604L84.3208 151.604ZM81.4842 97.023C73.3644 100.876 64.3466 102.447 55.3967 101.571C46.8953 102.578 38.2833 101.09 30.6134 97.2937V86.437C38.5023 89.1632 46.8392 90.372 55.1802 89.9991C64.1357 90.4422 73.0872 89.051 81.4827 85.9118L81.4842 97.023ZM113.048 25.1225L124.486 38.1001L109.454 83.1109C104.793 84.1874 99.8052 85.2478 98.0356 85.4924L95.4763 79.4123L101.575 78.1955C102.019 78.1073 102.375 77.7726 102.487 77.3336L112.58 38.5532H112.578C112.67 38.2004 112.594 37.8255 112.369 37.5368C112.146 37.2482 111.8 37.0798 111.437 37.0798H93.5373L94.7969 29.0794L94.9717 28.7066V28.7086C95.0882 28.2756 94.9496 27.8145 94.6121 27.5179L94.3348 27.2894C94.1199 27.1591 93.8668 27.1029 93.6177 27.127L86.171 25.1244L113.048 25.1225ZM52.2093 17.8057L49.9513 5.80008H60.5741L57.8239 17.8037L52.2093 17.8057ZM55.6143 2.3726C56.9743 2.3285 58.3162 2.70336 59.4553 3.44503H51.5304C52.7678 2.72135 54.18 2.35054 55.6144 2.3726H55.6143ZM51.476 20.1612H58.6295L90.2254 28.6547L90.2274 28.6567C88.8453 29.1619 87.4351 29.5908 86.0048 29.9396C76.4146 32.0204 66.6069 32.9425 56.7956 32.6899C45.53 33.2732 34.2479 31.9282 23.4384 28.7108L51.476 20.1612ZM56.7956 35.0473C68.7844 35.7589 80.7998 34.1853 92.2002 30.4087L91.0733 37.569L90.8463 38.2586L90.9045 38.6274L84.1387 81.6158H84.1367C82.5055 82.9107 80.6473 83.895 78.6566 84.5164C71.049 86.7956 63.1261 87.852 55.1827 87.6456C34.3227 87.6456 28.1916 82.7344 27.1167 81.6799L21.8171 30.6091L21.8191 30.6111C33.0992 34.2474 44.9614 35.7531 56.7959 35.0472L56.7956 35.0473ZM19.3401 29.6251L21.9818 55.0692L18.0082 47.7786V47.7766C15.011 41.3019 9.75155 36.1378 3.21257 33.2553C7.86715 29.8996 13.6929 28.5886 19.3397 29.623L19.3401 29.6251Z" fill="#D3D3D3"/>
</svg>
