<svg width="107" height="81" viewBox="0 0 107 81" fill="none" xmlns="http://www.w3.org/2000/svg">
<path d="M106.716 44.5295L102.41 38.088L102.263 37.9276C102.234 37.8857 102.198 37.8493 102.155 37.8204C102.045 37.7132 101.913 37.6312 101.768 37.5799L66.4461 24.4833L59.6518 19.9398V19.2854L62.4609 11.3738V11.3729C64.2399 10.8005 65.6365 9.41056 66.2159 7.63569C66.7962 5.86076 66.4902 3.91521 65.3922 2.40411C64.2941 0.89301 62.5375 -0.000953816 60.6689 7.63707e-07H5.83501C3.9664 -0.000931384 2.21062 0.893057 1.11275 2.40411C0.0148732 3.91516 -0.292207 5.86064 0.288063 7.63569C0.868333 9.41073 2.26488 10.8006 4.04309 11.3729L6.86503 19.2844L10.8775 56.704C10.912 56.9836 11.0333 57.2456 11.2255 57.4525L16.4545 63.2387C16.657 63.4652 16.9312 63.6162 17.2307 63.6666L27.3415 65.3903H36.1145L34.4698 71.8449V71.8458C34.3793 72.2271 34.3205 72.6168 34.2963 73.0083V73.4623C34.2757 73.6888 34.2757 73.9172 34.2963 74.1437C34.3336 74.3935 34.3914 74.6396 34.4698 74.8792C34.4698 74.9995 34.4698 75.1197 34.5631 75.24C34.8215 75.9634 35.2161 76.6308 35.7264 77.2041L36.0203 77.4577L36.0212 77.4586C36.1891 77.6376 36.3682 77.8073 36.5558 77.9658C36.7433 78.0991 36.9569 78.2063 37.1575 78.3265C37.3581 78.4468 37.3982 78.4869 37.5316 78.554H37.5325C37.8823 78.7274 38.2499 78.8616 38.6287 78.9548C38.9141 79.0303 39.2052 79.0788 39.4981 79.1021H40.6484L41.2231 79.0089H41.5039L42.0655 78.8215L42.3332 78.7283C42.5805 78.6211 42.8221 78.5008 43.0562 78.3675C43.3669 78.1839 43.6579 77.9686 43.9248 77.7253L44.1384 77.5248C44.3119 77.3514 44.4863 77.1641 44.6468 76.9767L44.9416 76.6029L45.1151 76.3754L53.501 75.6539L90.8148 80.9991L90.9491 81C91.0807 80.9963 91.2113 80.9739 91.3372 80.9329H91.5648L98.4255 77.3243C98.6867 77.1556 98.8808 76.9002 98.9732 76.6028L103.132 67.2482H103.133C103.167 67.1801 103.195 67.1083 103.213 67.0347L104.551 61.5692L105.995 55.9162V55.6888L106.998 45.4242C107.016 45.1016 106.916 44.7837 106.717 44.5292L106.716 44.5295ZM71.6354 75.5605L55.1315 73.1955L60.9621 50.2622L66.7527 27.5434L99.7079 39.7181L94.8531 58.8424L89.9312 78.1672L71.6354 75.5605ZM56.4152 15.1284L56.1745 14.928C55.8498 14.7714 55.5093 14.6502 55.1586 14.5663C54.7789 14.4638 54.388 14.405 53.9943 14.3929C53.9057 14.3864 53.8161 14.3864 53.7275 14.3929C53.4336 14.3733 53.1388 14.3733 52.845 14.3929L52.4307 14.5001H52.4298C52.2031 14.5439 51.9801 14.6017 51.7609 14.6735C51.0407 14.9234 50.3765 15.3139 49.8083 15.8229C49.6749 15.9432 49.5676 16.0905 49.4473 16.2107C49.327 16.331 49.1665 16.4913 49.0461 16.6517C48.8969 16.8595 48.7625 17.0786 48.645 17.3061C48.645 17.4133 48.5116 17.5196 48.4444 17.6268H9.17703L7.06398 11.6793L59.5837 11.6802L57.9651 16.2238L57.8578 16.1305H57.8588C57.6946 15.9599 57.5201 15.7987 57.3363 15.6495L57.0425 15.4221C56.8391 15.3121 56.6292 15.2142 56.4137 15.1284L56.4152 15.1284ZM58.3276 49.8751L52.4026 73.0609L46.1037 73.6491L52.5901 48.138L56.723 31.8867L59.0366 22.8127L64.2926 26.3273L58.3275 49.7687L58.3276 49.8751ZM2.67693 5.87854C2.67693 4.12973 4.09587 2.71101 5.84683 2.71101H60.6808H60.6798C61.5586 2.65415 62.4206 2.96364 63.0634 3.56491C63.7052 4.16617 64.0691 5.00611 64.0691 5.88518C64.0691 6.76518 63.7052 7.6051 63.0634 8.20639C62.4206 8.80765 61.5586 9.11622 60.6798 9.05935H5.8459H5.84683C4.09391 9.05189 2.67693 7.63027 2.67693 5.87869V5.87854ZM9.67183 20.3519H47.5875L41.2224 45.4215L38.7212 55.2573L13.4703 55.2582L9.67183 20.3519ZM27.6732 62.7567L18.1369 61.1263L15.2749 57.9588H38.0107L36.7932 62.7567H27.6732ZM37.4501 74.9453C37.1348 74.4074 36.9809 73.7903 37.0089 73.1676C37.0191 72.9597 37.0508 72.7537 37.1022 72.5523L39.3085 63.8661L43.8564 45.8642L50.5435 19.4175C50.5985 19.2162 50.6694 19.0195 50.7571 18.8302C50.8159 18.7184 50.883 18.6112 50.9577 18.5095L51.078 18.2961V18.2951C51.3327 17.9689 51.6462 17.6929 52.0007 17.4804C52.7237 17.0441 53.5894 16.9145 54.4085 17.1196C55.2201 17.334 55.9161 17.857 56.348 18.5757C56.4506 18.7612 56.5392 18.9533 56.6148 19.1509V19.2842C56.668 19.4324 56.7081 19.5844 56.7351 19.7391V19.9396V20.3535C56.7417 20.442 56.7417 20.5315 56.7351 20.621C56.7417 20.7413 56.7417 20.8615 56.7351 20.9818L49.9547 47.6432L43.2676 74.0898C43.2163 74.2921 43.1445 74.4897 43.054 74.678C42.999 74.7806 42.9365 74.8794 42.8665 74.9717C42.8292 75.0519 42.7844 75.1283 42.7331 75.1992C42.4821 75.5329 42.1687 75.8144 41.8095 76.0279C41.4513 76.2358 41.0567 76.3765 40.6462 76.4418H40.4186C40.2898 76.4558 40.1601 76.4558 40.0314 76.4418C39.8234 76.4306 39.6172 76.3989 39.4157 76.3486C38.6003 76.1593 37.8932 75.655 37.45 74.9456L37.4501 74.9453ZM102.1 60.6853L100.682 66.2309L96.7495 75.0646L92.9646 77.0558L97.3781 59.6822L101.859 42.1222L104.24 45.6768L103.464 55.3262L102.1 60.6853Z" fill="#D3D3D3"/>
</svg>
