<svg width="87" height="132" viewBox="0 0 87 132" fill="none" xmlns="http://www.w3.org/2000/svg">
<path d="M86.6766 1.14029C86.6766 0.570143 86.1065 0 85.5363 0H5.51183C5.32222 0 5.1313 -1.31506e-06 4.94169 0.189602L0.570145 2.47018C0.189608 2.65978 0 2.85071 0 3.22993C0 3.61047 -3.90472e-06 3.80007 0.189599 4.18061L18.247 30.7914C17.8665 31.9317 17.8665 33.072 18.247 34.2122L21.8589 43.3358C20.7187 42.7656 19.5784 42.3851 18.247 42.3851C14.2546 42.3851 10.8338 45.6163 10.6444 49.6086V49.7982C10.6444 49.9878 10.2639 61.3932 4.56115 72.4183C4.18061 72.9884 4.56114 73.7495 5.13129 73.9391C5.32089 73.9391 5.51183 74.1287 5.70143 74.1287C6.08197 74.1287 6.46118 73.9391 6.65211 73.5585C9.31319 68.426 10.8339 63.4842 11.7847 59.3024C12.3548 62.1531 13.1159 65.3857 14.0652 68.2362C14.2548 68.8064 15.0159 69.1869 15.5861 68.996C16.1562 68.8064 16.5367 68.0453 16.3458 67.4752C14.825 63.6739 14.0652 59.1112 13.6847 55.6904C15.016 56.8307 16.7264 57.4009 18.4368 57.4009C19.9576 57.4009 21.2875 57.0203 22.6186 56.2606L18.6275 65.3882C17.8678 67.0987 18.247 69.1895 19.1977 70.7105C19.3873 70.9001 19.5782 71.2807 19.7678 71.4703L9.31299 89.5277C5.51169 95.8004 4.94144 101.123 4.94144 103.784C4.94144 110.437 7.79213 131.916 45.4289 131.916C83.0651 131.916 85.9163 110.246 85.9163 103.784C85.9163 101.123 85.3462 95.8004 81.5448 89.5277L70.7094 70.7093C71.8497 69.1884 72.0407 67.0974 71.2796 65.387L67.6677 55.8829C67.0975 54.3621 66.717 52.6517 66.717 50.9411H67.2872C67.8573 50.9411 68.4274 50.3709 68.4274 49.8008C68.4274 49.2307 67.8573 48.6605 67.2872 48.6605H66.717C66.9066 47.3293 67.0975 45.9994 67.6677 44.6681L71.6601 34.2133C72.2302 32.6924 72.0406 30.982 71.09 29.651L69.9497 28.5107L86.2967 2.08929C86.6759 1.71008 86.6759 1.52047 86.6759 1.13994L86.6766 1.14029ZM5.13146 2.66111L20.7175 27.942C20.337 28.1316 19.9577 28.3225 19.5772 28.7018L2.65992 3.99077L5.13146 2.66111ZM18.2461 55.1237C15.3954 55.1237 12.9238 52.8431 12.9238 49.8014C12.9238 46.7598 15.2044 44.4791 18.2461 44.4791C20.7176 44.4791 22.8084 46.1896 23.3786 48.6609H18.0564C17.4862 48.6609 16.9161 49.2311 16.9161 49.8012C16.9161 50.3714 17.4862 50.9415 18.0564 50.9415H23.3786C22.8085 53.413 20.7176 55.1233 18.2461 55.1233V55.1237ZM83.8244 103.595C83.8244 119.752 69.5682 129.635 45.6179 129.635C21.6676 129.635 7.41143 119.942 7.41143 103.595C7.41143 99.6022 8.93225 94.8502 11.4038 90.4786L21.8587 72.6106C22.6184 72.8002 23.1899 72.9911 23.9496 72.9911H65.9577C67.098 72.9911 68.0487 72.6106 68.9994 72.0404L79.6436 90.289C83.2528 96.3723 83.8227 101.314 83.8227 103.594L83.8244 103.595ZM65.5758 56.6444L69.1877 66.1485C69.5682 67.2888 69.3773 68.429 68.8072 69.3797C68.237 70.3304 67.0967 70.9005 65.9565 70.9005H23.9484C22.8081 70.9005 21.8574 70.3304 21.0977 69.3797C20.338 68.429 20.3379 67.2887 20.7172 66.1485L24.3291 56.6444C25.0888 54.743 25.4693 52.8431 25.4693 50.9416H64.056C64.4365 52.8429 64.817 54.934 65.5768 56.6444H65.5758ZM69.5682 33.4544L65.5758 43.9092C65.0057 45.43 64.6251 47.1404 64.4355 48.851L25.6588 48.8523C25.4692 47.1419 25.0887 45.6211 24.5185 43.9106L20.5261 33.4557C20.1456 32.696 20.3365 31.7453 20.9067 30.9842C21.4768 30.2245 22.2379 29.8439 23.1872 29.8439H67.2862C68.2369 29.8439 68.9967 30.2245 69.5668 30.9842C69.7564 31.5544 69.946 32.5051 69.5668 33.4544H69.5682ZM68.0474 27.5622C67.6669 27.5622 67.4772 27.3726 67.0967 27.3726H22.9977L7.41031 2.28109H83.4431L68.0474 27.5622Z" fill="#D3D3D3"/>
<path d="M45.6189 126.785C67.4777 126.785 78.8833 118.04 80.2139 106.066H11.024C12.3539 118.042 23.7595 126.785 45.6189 126.785Z" fill="#D3D3D3"/>
<path d="M53.6023 23.5706C53.6023 25.0914 51.3218 25.0914 51.3218 23.5706C51.3218 22.0497 53.6023 22.0497 53.6023 23.5706Z" fill="#D3D3D3"/>
<path d="M48.6603 23.5706C48.6603 25.0914 46.3797 25.0914 46.3797 23.5706C46.3797 22.0497 48.6603 22.0497 48.6603 23.5706Z" fill="#D3D3D3"/>
<path d="M43.528 23.5706C43.528 25.0914 41.2474 25.0914 41.2474 23.5706C41.2474 22.0497 43.528 22.0497 43.528 23.5706Z" fill="#D3D3D3"/>
<path d="M38.5859 23.5706C38.5859 25.0914 36.3053 25.0914 36.3053 23.5706C36.3053 22.0497 38.5859 22.0497 38.5859 23.5706Z" fill="#D3D3D3"/>
<path d="M33.4536 23.5706C33.4536 25.0914 31.173 25.0914 31.173 23.5706C31.173 22.0497 33.4536 22.0497 33.4536 23.5706Z" fill="#D3D3D3"/>
<path d="M28.5115 23.5706C28.5115 25.0914 26.231 25.0914 26.231 23.5706C26.231 22.0497 28.5115 22.0497 28.5115 23.5706Z" fill="#D3D3D3"/>
<path d="M58.7346 23.5706C58.7346 25.0914 56.454 25.0914 56.454 23.5706C56.454 22.0497 58.7346 22.0497 58.7346 23.5706Z" fill="#D3D3D3"/>
<path d="M63.8666 23.5706C63.8666 25.0914 61.5861 25.0914 61.5861 23.5706C61.5861 22.0497 63.8666 22.0497 63.8666 23.5706Z" fill="#D3D3D3"/>
<path d="M51.1311 18.6279C51.1311 20.1487 48.8492 20.1487 48.8492 18.6279C48.8492 17.1071 51.1311 17.1071 51.1311 18.6279Z" fill="#D3D3D3"/>
<path d="M46.1892 18.6279C46.1892 20.1487 43.9086 20.1487 43.9086 18.6279C43.9086 17.1071 46.1892 17.1071 46.1892 18.6279Z" fill="#D3D3D3"/>
<path d="M41.057 18.6279C41.057 20.1487 38.7751 20.1487 38.7751 18.6279C38.7751 17.1071 41.057 17.1071 41.057 18.6279Z" fill="#D3D3D3"/>
<path d="M36.1148 18.6279C36.1148 20.1487 33.8342 20.1487 33.8342 18.6279C33.8342 17.1071 36.1148 17.1071 36.1148 18.6279Z" fill="#D3D3D3"/>
<path d="M30.9826 18.6279C30.9826 20.1487 28.7007 20.1487 28.7007 18.6279C28.7007 17.1071 30.9826 17.1071 30.9826 18.6279Z" fill="#D3D3D3"/>
<path d="M26.0405 18.6279C26.0405 20.1487 23.7599 20.1487 23.7599 18.6279C23.7599 17.1071 26.0405 17.1071 26.0405 18.6279Z" fill="#D3D3D3"/>
<path d="M56.2635 18.6279C56.2635 20.1487 53.983 20.1487 53.983 18.6279C53.983 17.1071 56.2635 17.1071 56.2635 18.6279Z" fill="#D3D3D3"/>
<path d="M61.2057 18.6279C61.2057 20.1487 58.9251 20.1487 58.9251 18.6279C58.9251 17.1071 61.2057 17.1071 61.2057 18.6279Z" fill="#D3D3D3"/>
<path d="M66.3378 18.6279C66.3378 20.1487 64.0559 20.1487 64.0559 18.6279C64.0559 17.1071 66.3378 17.1071 66.3378 18.6279Z" fill="#D3D3D3"/>
<path d="M53.6023 13.6858C53.6023 15.2066 51.3218 15.2066 51.3218 13.6858C51.3218 12.165 53.6023 12.165 53.6023 13.6858Z" fill="#D3D3D3"/>
<path d="M48.6603 13.6858C48.6603 15.2066 46.3797 15.2066 46.3797 13.6858C46.3797 12.165 48.6603 12.165 48.6603 13.6858Z" fill="#D3D3D3"/>
<path d="M43.528 13.6858C43.528 15.2066 41.2474 15.2066 41.2474 13.6858C41.2474 12.165 43.528 12.165 43.528 13.6858Z" fill="#D3D3D3"/>
<path d="M38.5859 13.6858C38.5859 15.2066 36.3053 15.2066 36.3053 13.6858C36.3053 12.165 38.5859 12.165 38.5859 13.6858Z" fill="#D3D3D3"/>
<path d="M33.4536 13.6858C33.4536 15.2066 31.173 15.2066 31.173 13.6858C31.173 12.165 33.4536 12.165 33.4536 13.6858Z" fill="#D3D3D3"/>
<path d="M28.5115 13.6858C28.5115 15.2066 26.231 15.2066 26.231 13.6858C26.231 12.165 28.5115 12.165 28.5115 13.6858Z" fill="#D3D3D3"/>
<path d="M23.3793 13.6858C23.3793 15.2066 21.0987 15.2066 21.0987 13.6858C21.0987 12.165 23.3793 12.165 23.3793 13.6858Z" fill="#D3D3D3"/>
<path d="M58.7346 13.6858C58.7346 15.2066 56.454 15.2066 56.454 13.6858C56.454 12.165 58.7346 12.165 58.7346 13.6858Z" fill="#D3D3D3"/>
<path d="M63.8666 13.6858C63.8666 15.2066 61.5861 15.2066 61.5861 13.6858C61.5861 12.165 63.8666 12.165 63.8666 13.6858Z" fill="#D3D3D3"/>
<path d="M68.809 13.6858C68.809 15.2066 66.5284 15.2066 66.5284 13.6858C66.5284 12.165 68.809 12.165 68.809 13.6858Z" fill="#D3D3D3"/>
<path d="M45.6189 78.3138C46.3786 78.3138 46.9501 77.7436 46.9501 76.9826C46.9501 76.2228 46.38 75.8423 45.6189 75.8423C44.8591 75.8423 44.2877 76.4124 44.2877 77.1735C44.289 77.9346 44.8591 78.3138 45.6189 78.3138Z" fill="#D3D3D3"/>
<path d="M45.6189 89.909C46.3786 89.909 46.9501 89.3389 46.9501 88.5778C46.9501 87.818 46.38 87.4375 45.6189 87.4375C44.8591 87.4375 44.2877 88.0076 44.2877 88.7687C44.289 89.5298 44.8591 89.909 45.6189 89.909Z" fill="#D3D3D3"/>
<path d="M45.6189 84.0164C46.3786 84.0164 46.9501 83.4463 46.9501 82.6852C46.9501 81.9255 46.38 81.5449 45.6189 81.5449C44.8591 81.5449 44.2877 82.1151 44.2877 82.8761C44.289 83.6359 44.8591 84.0164 45.6189 84.0164Z" fill="#D3D3D3"/>
<path d="M45.6189 101.504C46.3786 101.504 46.9501 100.934 46.9501 100.173C46.9501 99.4128 46.38 99.0322 45.6189 99.0322C44.8591 99.0322 44.2877 99.6024 44.2877 100.363C44.289 101.125 44.8591 101.504 45.6189 101.504Z" fill="#D3D3D3"/>
<path d="M45.6189 95.8016C46.3786 95.8016 46.9501 95.2314 46.9501 94.4704C46.9501 93.7106 46.38 93.3301 45.6189 93.3301C44.8591 93.3301 44.2877 93.9002 44.2877 94.6613C44.289 95.421 44.8591 95.8016 45.6189 95.8016Z" fill="#D3D3D3"/>
</svg>
