<svg width="113" height="127" viewBox="0 0 113 127" fill="none" xmlns="http://www.w3.org/2000/svg">
<path d="M112.344 114.875L96.2738 63.2409H101.928C102.523 63.2409 103.119 62.6462 103.119 62.0504C103.119 61.4557 102.524 60.8599 101.928 60.8599H79.0127L103.118 17.1127C103.266 16.6663 103.266 16.22 103.118 15.9221C102.97 15.6242 102.523 15.3274 102.076 15.3274H94.7845L99.2488 8.03592C99.3972 7.73802 99.5467 7.29171 99.3972 6.99381C99.2488 6.69592 98.9509 6.39907 98.653 6.2496C88.0876 2.23174 76.0351 0 63.8338 0C51.6316 0 39.5791 2.08315 29.0146 6.2496C28.7167 6.39803 28.4198 6.69592 28.2704 6.99381C28.1219 7.29171 28.1219 7.73802 28.4188 8.03592L32.8831 15.3274H25.5916C25.1453 15.3274 24.6989 15.6253 24.5495 15.9221C24.4011 16.22 24.2516 16.8148 24.5495 17.1127L48.6548 60.8599H25.5937C24.999 60.8599 24.4032 61.4546 24.4032 62.0504C24.4032 62.6451 24.998 63.2409 25.5937 63.2409H31.5452L29.0157 71.2756H20.3853C9.22534 71.2756 0 80.3524 0 91.6609C0 101.482 7.14214 109.815 16.5168 111.6L15.4747 114.873V115.022C15.0284 117.849 15.921 120.825 17.8557 123.057C19.7905 125.288 22.4683 126.479 25.4443 126.479L102.374 126.481C105.35 126.481 108.029 125.142 109.962 123.059C111.897 120.827 112.79 118 112.343 115.024V114.875L112.344 114.875ZM102.375 124.1H25.445C23.2134 124.1 21.1303 123.207 19.6418 121.422C18.1534 119.785 17.5586 117.553 17.8565 115.471L34.0755 63.2417H39.5808V69.7892C39.5808 70.3839 40.1755 70.9797 40.7713 70.9797H86.8993C87.4941 70.9797 88.0899 70.385 88.0899 69.7892V63.2417H93.7445L109.963 115.471C110.261 117.702 109.666 119.785 108.178 121.422C106.69 123.06 104.607 124.101 102.375 124.101L102.375 124.1ZM20.3858 73.6567H28.2722L17.2607 109.22C8.92819 107.731 2.52926 100.441 2.52926 91.662C2.38187 81.6924 10.565 73.6567 20.3861 73.6567H20.3858ZM83.6258 4.46466C83.6258 4.46466 83.4774 4.46466 83.6258 4.46466L82.1374 7.14253C81.8395 7.73728 81.9889 8.48149 82.5837 8.77939C82.7321 8.92781 83.03 8.92781 83.1784 8.92781C83.6248 8.92781 84.0711 8.62992 84.2205 8.33306L85.709 5.6552C85.8574 5.3573 85.8574 5.20888 85.8574 4.91098C89.5774 5.80362 93.1489 6.69626 96.571 8.03631L92.1067 15.3278H80.5003L81.9888 12.5003C82.2866 11.9056 82.1372 11.1614 81.5424 10.8635C80.9477 10.5656 80.2035 10.715 79.9056 11.3098L77.674 15.3276L35.7124 15.3266L31.2481 8.03514C41.2177 4.46368 52.526 2.52981 63.8353 2.52981C70.5321 2.38138 77.2279 3.12559 83.6257 4.46453L83.6258 4.46466ZM99.9943 17.7079L76.1858 60.8599H51.4847L27.6762 17.7079H99.9943ZM50.7415 63.2407H85.7095V68.5975H41.9623V63.2407H50.7415Z" fill="#D3D3D3"/>
<path d="M95.6786 100.441C95.5301 99.9947 95.0838 99.5483 94.488 99.5483H33.3312C32.7365 99.5483 32.2891 99.8462 32.1407 100.441L28.8671 110.857C28.4208 112.196 28.7187 113.684 29.4619 114.725C30.3545 115.916 31.545 116.511 33.0333 116.511H94.6365C95.9755 116.511 97.3144 115.916 98.208 114.725C99.1006 113.535 99.2501 112.196 98.8027 110.857L95.6786 100.441ZM96.2744 113.238C95.828 113.684 95.3817 113.982 94.6375 113.982H33.1831C32.5884 113.982 31.9926 113.684 31.5463 113.238C31.0999 112.791 31.0999 112.047 31.2484 111.452L34.2241 101.929H93.5953L96.571 111.452C96.7205 112.196 96.7205 112.791 96.2742 113.238H96.2744Z" fill="#D3D3D3"/>
</svg>
