<svg width="172" height="154" viewBox="0 0 172 154" fill="none" xmlns="http://www.w3.org/2000/svg">
<path d="M169.575 85.7829C168.064 84.5583 164.8 83.4294 162.498 82.9898C157.804 82.0854 148.928 81.1198 138.087 81.1198C126.402 81.1198 114.686 82.1956 103.267 84.3153C98.2668 85.237 93.1495 85.7058 88.0549 85.7058C81.1753 85.7058 75.7962 84.8797 71.8743 84.1599L71.3577 84.0669C70.1624 83.8438 68.9763 83.699 67.8023 84.0589C67.0307 84.3006 66.3453 84.7323 65.7743 85.2848V84.2183C65.7743 83.019 64.6281 82.0096 63.276 82.0096C63.2322 82.0096 58.7217 82.3138 58.7217 84.2183V86.3951H54.9896V79.4424C54.9896 77.498 53.4051 75.9109 51.4593 75.9109L3.52614 75.9082C1.58175 75.9056 0 77.4927 0 79.4384V95.8927C0 97.8039 7.73228 107.784 9.80424 107.784H10.9597C10.9517 108.02 10.9584 108.259 10.973 108.498C10.9823 108.695 10.9956 108.903 10.9956 109.121C10.9956 110.789 12.3516 112.146 14.017 112.146H20.7439C20.4571 112.648 20.2791 113.221 20.2791 113.838V118.67H25.4709V117.802C25.4709 116.681 26.3807 115.768 27.4949 115.768C28.6092 115.768 29.5163 116.681 29.5163 117.802V118.67H34.7105V113.838C34.7105 113.222 34.5312 112.648 34.2457 112.146H40.9845C42.6526 112.146 44.0099 110.789 44.0099 109.121C44.0099 108.924 44.0192 108.74 44.0245 108.562C44.0378 108.302 44.0392 108.043 44.0232 107.785H45.184C46.2784 107.785 48.9478 105.001 51.2268 102.093H58.7214V104.261C58.7214 106.175 63.2305 106.482 63.2757 106.482C64.6291 106.482 65.774 105.467 65.774 104.261V103.198C66.3477 103.747 67.0304 104.18 67.802 104.422C68.9747 104.787 70.1833 104.641 71.3931 104.41L71.8818 104.319C75.7932 103.599 81.1614 102.777 88.0291 102.777C93.1332 102.777 98.2597 103.245 103.265 104.174C114.695 106.287 126.412 107.361 138.102 107.361H138.106C148.947 107.361 157.814 106.398 162.499 105.495C164.879 105.034 168.076 103.923 169.581 102.694C171.174 101.393 171.358 100.015 171.358 99.0923V89.3931C171.358 88.4647 171.174 87.0835 169.575 85.7833L169.575 85.7829ZM3.5224 77.6453H51.4556C52.4477 77.6453 53.2459 78.4488 53.2459 79.4369V79.7968H1.7359V79.4369C1.7359 78.4488 2.53545 77.6453 3.52223 77.6453H3.5224ZM17.2924 106.056H16.5911C15.2431 105.586 8.68615 97.3956 8.42333 95.8911V81.5393H9.8378V94.7038C9.8378 96.0771 14.8834 102.823 18.2834 106.051L17.2924 106.056ZM1.73604 95.8911V81.5393H6.68202V95.8911C6.68202 97.3042 10.9028 103.115 13.9417 106.056L9.90964 106.058C8.57089 105.604 1.9992 97.3969 1.73638 95.891L1.73604 95.8911ZM32.9681 113.837V116.931H31.1539C30.7621 115.268 29.2666 114.029 27.4921 114.029C25.715 114.029 24.2209 115.268 23.8293 116.931H22.0151V113.837C22.0151 112.904 22.7748 112.145 23.7071 112.145H31.2776C32.2099 112.146 32.9683 112.903 32.9683 113.837H32.9681ZM42.2875 108.484C42.2782 108.686 42.2662 108.9 42.2662 109.12C42.2662 109.828 41.6898 110.406 40.9806 110.406H14.0118C13.3053 110.406 12.7302 109.83 12.7302 109.12C12.7302 108.865 12.7156 108.62 12.6997 108.389C12.6851 108.151 12.6638 107.832 12.6957 107.832L12.6997 107.834L26.8307 107.782H42.2742C42.3088 107.924 42.2995 108.235 42.2875 108.484L42.2875 108.484ZM45.1815 106.046L23.7921 106.055V106.046L22.2461 106.055H20.9592C19.5155 105.505 11.9121 96.2628 11.5786 94.7049V81.5391H53.2456V87.2433H53.2469L53.2509 95.8494C52.9826 97.3967 46.4125 105.603 45.18 106.045L45.1815 106.046ZM52.5326 100.351C53.9471 98.3746 54.987 96.5908 54.987 95.8925V88.1337H58.7192V100.351L52.5326 100.351ZM64.0328 104.257C64.0328 104.447 63.6901 104.736 63.2731 104.736C62.5997 104.736 60.9595 104.335 60.4588 104.024V84.457C60.9648 84.1462 62.5984 83.7465 63.2731 83.7465C63.6914 83.7465 64.0328 84.0307 64.0328 84.2166V104.257ZM162.17 103.789C157.563 104.675 148.825 105.623 138.103 105.623H138.099C126.517 105.623 114.902 104.56 103.579 102.462C98.4688 101.518 93.2344 101.036 88.0256 101.036C81.0172 101.036 75.5466 101.874 71.5663 102.607L71.0602 102.703C70.0017 102.901 69.1663 103.028 68.315 102.76C66.8142 102.291 65.769 100.781 65.769 99.0931V89.3953C65.769 87.6992 66.8142 86.1852 68.311 85.7202C69.157 85.4625 69.9884 85.5834 71.0337 85.772L71.5636 85.8689C75.5545 86.6021 81.0319 87.4414 88.0509 87.4414C93.2532 87.4414 98.4766 86.966 103.579 86.0217C114.896 83.9232 126.506 82.8568 138.083 82.8568C148.802 82.8568 157.553 83.809 162.167 84.6975C163.041 84.8649 164.074 85.1464 165.074 85.4918V102.991C164.087 103.33 163.059 103.614 162.168 103.789L162.17 103.789ZM169.62 99.0918C169.62 99.8861 169.423 100.573 168.479 101.346C168.08 101.67 167.491 101.995 166.816 102.303V86.1784C167.489 86.4852 168.082 86.8106 168.479 87.132C169.423 87.901 169.62 88.5903 169.62 89.3938V99.0918Z" fill="#D3D3D3"/>
<path d="M2.5908 63.7407H52.3838C52.8633 63.7407 53.2537 63.3502 53.2537 62.8707V52.8156C53.2537 52.5513 53.1276 52.3228 52.9416 52.1621L52.9456 52.1528L52.8633 52.1103C52.7969 52.0652 52.7265 52.024 52.6468 52.0001L40.4996 45.7832C35.8045 38.7748 37.5432 33.0373 39.3959 26.9676C40.4265 23.5835 41.4944 20.0867 41.5342 16.2096L40.6643 16.2017H41.5342V7.565C41.5342 3.11304 35.761 0 27.4919 0C19.2204 0 13.4495 3.11178 13.4495 7.565V16.2017H14.3181L13.4495 16.2096C13.4894 20.0863 14.5559 23.5836 15.5851 26.9676C17.4379 33.0373 19.1776 38.7758 14.4815 45.7845L2.33191 51.9974C2.24956 52.0239 2.17785 52.0638 2.10745 52.1116L2.03175 52.1514L2.03706 52.1607C1.84846 52.3201 1.72229 52.5512 1.72229 52.8155V62.8707C1.72097 63.3501 2.11142 63.7406 2.58957 63.7406L2.5908 63.7407ZM15.2942 47.3224H39.6865L48.7244 51.9457H6.25158L15.2942 47.3224ZM10.6444 53.6882V62.0036L9.22461 62.0023V53.6869L10.6444 53.6882ZM3.46052 53.6882H7.48204V62.0036L3.46052 62.0023V53.6882ZM51.5161 62.0022H12.3821V53.6868L51.5161 53.6882V62.0022ZM15.1871 8.43863H39.7919V15.3328H15.1871V8.43863ZM27.491 1.74097C33.8793 1.74097 38.8198 3.81949 39.6552 6.69885H15.3252C16.1592 3.81946 21.0997 1.74097 27.4907 1.74097H27.491ZM17.2485 26.46C16.3321 23.4637 15.4263 20.3638 15.251 17.0716H39.7242C39.5489 20.364 38.6445 23.4639 37.7267 26.46C36.3827 30.8759 35.0174 35.3996 36.202 40.416H18.7702C19.9576 35.3996 18.5949 30.8759 17.2482 26.46H17.2485ZM18.2619 42.1544H36.7188C37.1106 43.27 37.6286 44.4109 38.3165 45.5809L16.664 45.5822C17.3519 44.4108 17.8699 43.2726 18.2617 42.1544L18.2619 42.1544Z" fill="#D3D3D3"/>
<path d="M31.0386 144.168C30.7757 143.561 30.5286 142.929 30.3068 142.288C29.5751 140.206 28.8326 137.946 28.3426 135.567L27.4912 131.414L26.6426 135.567C26.1459 137.991 25.3768 140.325 24.6929 142.28C24.4565 142.927 24.2054 143.571 23.9651 144.172C23.4378 145.411 22.8986 146.736 22.6396 148.115C22.362 149.76 23.0513 151.641 24.3489 152.786C25.2002 153.551 26.2454 153.941 27.458 153.941H27.5271C28.7622 153.941 29.8208 153.555 30.6747 152.795C31.9657 151.649 32.6191 149.817 32.3375 148.113C32.1131 146.806 31.6097 145.574 31.0386 144.168L31.0386 144.168ZM29.5219 151.502C28.9854 151.976 28.3332 152.204 27.5271 152.204H27.458C26.6797 152.204 26.0409 151.974 25.507 151.49C24.661 150.743 24.1775 149.448 24.3529 148.424C24.576 147.229 25.074 146.004 25.5734 144.836C25.8284 144.199 26.0874 143.537 26.3291 142.865C26.7116 141.772 27.1207 140.563 27.4965 139.281C27.8644 140.524 28.2695 141.718 28.6719 142.861C28.9017 143.534 29.1673 144.21 29.4754 144.93C29.9682 146.142 30.4357 147.285 30.6256 148.404C30.8049 149.508 30.3613 150.752 29.5219 151.501L29.5219 151.502Z" fill="#D3D3D3"/>
</svg>
