<svg width="98" height="149" viewBox="0 0 98 149" fill="none" xmlns="http://www.w3.org/2000/svg">
<path d="M97.0757 101.007L89.172 43.5548C89.1678 43.4588 89.0488 41.1776 86.9566 39.2241C85.2723 37.6536 81.9362 37.8404 81.8421 37.8477H72.4534V36.0769H70.7211V24.2005H72.4534V14.8473H43.6901V7.08249C49.2646 6.89361 58.8547 6.19133 58.8547 3.57731C58.8547 0.100179 41.9077 0 39.9752 0C38.0426 0 21.1021 0.101223 21.1021 3.57731C21.1021 6.1569 30.4291 6.87599 36.0309 7.07528V14.8454H7.26758V23.0766C5.81499 24.1807 -0.306452 29.1239 0.0119828 33.7551C0.104858 35.1002 0.401208 35.9069 0.974123 36.367C1.67225 36.9285 2.53314 36.7991 3.44832 36.6645C4.61395 36.4912 5.9288 36.3117 7.51183 37.2478V51.089H9.23782V117.175H7.51183V132.187H8.49484C6.61335 134.778 3.01306 140.168 3.79259 142.545C4.98012 146.16 20.8229 148.991 39.8622 148.991C60.6743 148.991 75.996 145.858 77.2515 142.933C78.1855 140.752 73.9195 135.07 71.5341 132.142V118.762L92.9117 110.167C93.0182 110.109 95.531 108.724 96.7206 106.595C97.7548 104.755 97.1464 101.351 97.0786 101.007L97.0757 101.007ZM39.9739 1.49846C49.8039 1.49846 56.2164 2.68807 57.2735 3.57926C56.3344 4.36816 51.1773 5.39081 43.166 5.61206H36.7807C28.7726 5.39083 23.6178 4.36712 22.6775 3.57926C23.7366 2.6881 30.147 1.49846 39.9739 1.49846ZM37.5247 7.12101C38.7258 7.14919 39.6128 7.15232 39.9739 7.15232C40.3109 7.15232 41.1113 7.14919 42.1924 7.12519V14.8462H37.5246L37.5247 7.12101ZM8.76145 16.3428H70.955V22.704L8.76145 22.7029V16.3428ZM3.22437 35.1857C2.64521 35.2723 2.09631 35.3548 1.90744 35.2003C1.81143 35.1241 1.5808 34.8184 1.50152 33.6517C1.23125 29.7156 7.16575 25.0291 8.26157 24.1983H69.2209V36.0747L8.45926 36.0758C6.33464 34.7369 4.47081 35.0009 3.22485 35.1856L3.22437 35.1857ZM9.00455 37.5723H70.9523V49.5926H9.00455V37.5723ZM42.9397 112.65V108.141C66.3743 108.491 69.226 116.753 69.2511 116.831L69.3482 117.174H12.7059C14.0927 115.015 19.9479 108.469 39.8556 108.144V112.651H42.9382L42.9397 112.65ZM10.7303 51.0897H69.2212V114.082C66.698 111.265 60.0101 106.905 42.94 106.651L42.9389 51.1388H39.8585V106.646C16.4563 107.021 11.5948 115.841 10.9964 117.172H10.7282L10.7303 51.0897ZM9.00326 118.669H69.7729L70.0307 119.573V130.689H9.00189L9.00326 118.669ZM75.8691 142.343C75.2107 143.885 62.1615 147.494 39.8583 147.494C17.9734 147.494 5.85098 144.022 5.20983 142.077C4.71311 140.565 7.84995 135.493 10.3534 132.187H69.619C73.0564 136.265 76.3436 141.242 75.8697 142.344L75.8691 142.343ZM95.4101 105.862C94.4438 107.593 92.2575 108.816 92.2669 108.816H92.2679L71.4674 117.174H70.716L70.7171 51.0884H72.4493V39.3413L81.8848 39.3402C82.6644 39.2943 84.9214 39.3747 85.9347 40.317C87.5605 41.8353 87.6712 43.5489 87.6816 43.6854L95.5989 101.247C95.7659 102.137 96.0622 104.701 95.41 105.86L95.4101 105.862Z" fill="#D3D3D3"/>
</svg>
